<svg width="91" height="32" viewBox="0 0 91 32" fill="none" xmlns="http://www.w3.org/2000/svg">
<path d="M12.2252 19.9518C9.48695 19.9414 6.7487 19.9344 4.01046 19.924L0 11.9567H8.20064L12.2252 19.9518Z" fill="#9E3DFB"/>
<path d="M28.4502 4L16.3202 28.0928L16.3061 28.1206H8.1125L8.1266 28.0962L12.2252 19.9518L20.2531 4H28.4502Z" fill="#3B0467"/>
<path d="M80.06 23.1055L83.5711 17.7612L79.9743 12.6281H83.6353L85.6692 15.5221L87.3819 12.6281H90.893L87.3391 17.9091L91 23.1055H87.3391L85.3052 20.1904L83.5925 23.1055H80.06Z" fill="#3B0467"/>
<path d="M69.1631 27.7528L71.4539 22.7464L67.1292 12.6281H70.7688L73.2308 19.1765L75.6714 12.6281H79.1825L72.6742 27.7528H69.1631Z" fill="#3B0467"/>
<path d="M62.8478 23.1054V8.31867H66.1448V23.1054H62.8478Z" fill="#3B0467"/>
<path d="M53.4702 23.359C52.8564 23.359 52.2855 23.2393 51.7574 22.9999C51.2293 22.7464 50.8012 22.3873 50.4729 21.9226C50.1589 21.4438 50.0019 20.8664 50.0019 20.1904C50.0019 19.4159 50.2088 18.7892 50.6228 18.3104C51.0367 17.8175 51.5862 17.4584 52.2713 17.2331C52.9706 17.0078 53.7342 16.8951 54.562 16.8951H56.9598C56.9598 16.5289 56.8956 16.205 56.7671 15.9234C56.6387 15.6417 56.446 15.4235 56.1891 15.2686C55.9322 15.0996 55.6111 15.0151 55.2257 15.0151C54.8261 15.0151 54.4621 15.0996 54.1338 15.2686C53.8056 15.4375 53.5986 15.7262 53.513 16.1346H50.323C50.3801 15.3601 50.6442 14.6982 51.1152 14.149C51.5862 13.5857 52.1856 13.1491 52.9135 12.8393C53.6557 12.5295 54.4478 12.3746 55.2899 12.3746C56.2747 12.3746 57.1382 12.5577 57.8804 12.9238C58.6369 13.2759 59.2221 13.7899 59.636 14.4658C60.0499 15.1277 60.2568 15.9304 60.2568 16.874V19.5567C60.2568 19.8665 60.2996 20.1059 60.3853 20.2749C60.4852 20.4439 60.735 20.5284 61.1346 20.5284V23.1055C60.4495 23.1055 59.8786 23.0633 59.4219 22.9788C58.9651 22.8943 58.5798 22.7394 58.2658 22.5141C57.9518 22.2747 57.6663 21.9296 57.4094 21.479C56.9384 22.0986 56.3818 22.5704 55.7395 22.8943C55.0972 23.2041 54.3408 23.359 53.4702 23.359ZM54.6262 20.8664C55.0402 20.8664 55.4184 20.7819 55.7609 20.6129C56.1177 20.4298 56.4032 20.1763 56.6173 19.8524C56.8314 19.5285 56.9384 19.1624 56.9384 18.754V18.6273H54.9046C54.6191 18.6273 54.3551 18.6695 54.1124 18.754C53.8698 18.8244 53.6771 18.9441 53.5344 19.1131C53.3917 19.268 53.3203 19.4863 53.3203 19.768C53.3203 20.1763 53.4559 20.465 53.7271 20.634C53.9982 20.7889 54.298 20.8664 54.6262 20.8664Z" fill="#3B0467"/>
<path d="M40.3893 23.1054L35.0157 8.31867H38.591L42.5088 19.7467L46.4267 8.31867H49.9806L44.5855 23.1054H40.3893Z" fill="#3B0467"/>
</svg>
